<svg width="24" height="24" viewBox="0 0 24 24" fill="none" xmlns="http://www.w3.org/2000/svg">
<path fill-rule="evenodd" clip-rule="evenodd" d="M21.698 2.36232C20.9617 1.62597 19.7678 1.62597 19.0315 2.36231L13.8876 7.50623L12.8269 6.44557L17.9708 1.30165C19.293 -0.0204741 21.4366 -0.020473 22.7587 1.30166C24.0808 2.62378 24.0808 4.76738 22.7587 6.08951L17.6694 11.1788L16.6087 10.1182L21.698 5.02885C22.4344 4.2925 22.4344 3.09866 21.698 2.36232ZM7.47109 13.9227L3.96148 17.4323C3.36602 18.0278 2.91835 18.7545 2.65433 19.5541L1.75248 22.2856L1.04029 22.0505L1.75248 22.2856C1.7513 22.2892 1.75079 22.2916 1.75055 22.2929L1.75034 22.2946C1.75083 22.2958 1.75248 22.2993 1.75675 22.3036C1.76102 22.3079 1.76457 22.3095 1.76579 22.31L1.76743 22.3098C1.76875 22.3096 1.77116 22.309 1.77472 22.3079L4.50623 21.406C5.30588 21.142 6.03255 20.6943 6.62801 20.0989L10.0176 16.7093L11.0783 17.7699L7.68867 21.1595C6.92753 21.9207 5.99866 22.4929 4.97651 22.8304L2.245 23.7322C1.06126 24.1231 -0.062723 22.9991 0.328107 21.8154L1.22996 19.0838L1.93943 19.3181L1.22996 19.0838C1.56744 18.0617 2.13968 17.1328 2.90082 16.3717L6.41043 12.8621L7.47109 13.9227Z" fill="black"/>
<path fill-rule="evenodd" clip-rule="evenodd" d="M4.99596 0.905986C5.1832 0.411045 5.67448 0.0644051 6.2802 0.123271C7.55 0.246675 8.7878 0.795293 9.76008 1.76757C11.155 3.16247 11.8097 4.97886 11.4122 6.82979L22.5256 17.6224C24.0208 19.0183 24.062 21.3765 22.6147 22.8238C21.1658 24.2727 18.8038 24.2298 17.4085 22.7295C17.4081 22.7291 17.4077 22.7287 17.4073 22.7283L6.75528 11.3675C4.93812 11.7707 3.1106 11.2565 1.69086 9.83679C0.718559 8.86449 0.169937 7.62665 0.0465483 6.35683C-0.0123096 5.75112 0.334335 5.25984 0.829273 5.0726C1.27987 4.90215 1.80518 4.99709 2.18914 5.34652L4.19679 6.82L6.35971 6.41903L6.81072 4.1429L5.28607 2.28335C4.9234 1.89796 4.8229 1.36346 4.99596 0.905986ZM6.76989 1.72731L8.16529 3.42921C8.32643 3.62574 8.39117 3.88406 8.34177 4.13335L7.74542 7.143C7.67777 7.48443 7.40879 7.75011 7.06656 7.81355L4.19378 8.34611C3.96312 8.38887 3.72505 8.3344 3.53592 8.1956L1.63999 6.80412C1.81634 7.52676 2.1866 8.21121 2.75152 8.77612C3.90084 9.92545 5.34349 10.2533 6.77548 9.8116L7.2232 9.67351L18.5061 21.7072C19.3227 22.5861 20.7057 22.6114 21.554 21.7631C22.4023 20.9148 22.377 19.5319 21.4981 18.7152L21.4921 18.7096L9.72444 7.28172L9.85986 6.84269C10.2894 5.45018 9.87995 4.00876 8.69942 2.82823C8.14558 2.27439 7.47686 1.90766 6.76989 1.72731Z" fill="black"/>
</svg>
