<svg width="1024" height="1024" viewBox="0 0 1024 1024" fill="none" xmlns="http://www.w3.org/2000/svg">
<path d="M434.816 791.6C443.096 772.918 464.954 764.485 483.636 772.765L486.43 774.004C502.701 781.216 521.264 781.208 537.529 773.984L748.185 680.425C738.263 669.901 735.049 654.052 741.287 640.006C749.581 621.331 771.445 612.916 790.12 621.21L810.358 630.198C855.249 650.135 855.249 713.845 810.358 733.782L567.566 841.614C532.195 857.323 491.83 857.339 456.447 841.657L453.652 840.419C434.97 832.139 426.537 810.282 434.816 791.6ZM213.642 733.782C169.102 714.001 168.754 651.128 212.598 630.673L213.642 630.198L233.88 621.21C252.555 612.916 274.419 621.331 282.713 640.006C288.951 654.053 285.736 669.901 275.813 680.425L284.156 684.129C302.831 692.424 311.246 714.287 302.952 732.963C294.658 751.638 272.794 760.054 254.118 751.76L213.642 733.782Z" fill="url(#paint0_radial_755_542)"/>
<path d="M213.642 563.782C169.102 544 168.754 481.128 212.598 460.673L213.642 460.198L233.88 451.21C252.556 442.916 274.419 451.331 282.713 470.006C288.952 484.053 285.736 499.901 275.813 510.425L486.428 603.965C502.709 611.196 521.29 611.196 537.571 603.966L618.289 568.116L620.397 567.157L620.397 420.131C620.397 399.697 636.963 383.131 657.398 383.131C677.832 383.131 694.398 399.697 694.398 420.131L694.397 534.314L748.186 510.425C738.263 499.901 735.049 484.052 741.287 470.006C749.582 451.331 771.445 442.916 790.12 451.21L810.359 460.198C855.249 480.135 855.249 543.845 810.359 563.782L688.927 617.714L688.708 617.812L672.361 624.818L648.599 635.625L567.608 671.595C532.204 687.32 491.797 687.319 456.392 671.595L407.33 649.806L407.33 763.168C407.33 783.602 390.765 800.168 370.33 800.168C349.896 800.168 333.33 783.602 333.33 763.168L333.329 616.939L213.642 563.782Z" fill="url(#paint1_radial_755_542)"/>
<path d="M214.32 394.083C169.521 374.187 169.171 310.949 213.269 290.375L214.32 289.897L456.392 182.385C491.797 166.661 532.204 166.661 567.608 182.385L809.651 289.884C854.816 309.943 854.799 374.048 809.623 394.083L766.898 413.032C748.218 421.316 726.359 412.888 718.075 394.208C709.791 375.528 718.218 353.669 736.898 345.385L744.606 341.966L537.572 250.015C521.291 242.784 502.709 242.784 486.428 250.015L279.339 341.99L486.541 434.016C502.75 441.215 521.25 441.215 537.46 434.016C556.135 425.721 577.998 434.137 586.292 452.813C594.586 471.488 586.171 493.351 567.496 501.646C532.163 517.338 491.838 517.338 456.505 501.646L214.32 394.083Z" fill="url(#paint2_radial_755_542)"/>
<defs>
<radialGradient id="paint0_radial_755_542" cx="0" cy="0" r="1" gradientUnits="userSpaceOnUse" gradientTransform="translate(512 681.99) rotate(90) scale(164 323.818)">
<stop stop-color="#1348FF"/>
<stop offset="1" stop-color="#06238D"/>
</radialGradient>
<radialGradient id="paint1_radial_755_542" cx="0" cy="0" r="1" gradientUnits="userSpaceOnUse" gradientTransform="translate(512 518.581) scale(552 360.409)">
<stop stop-color="#0195FF"/>
<stop offset="1" stop-color="#1147E9"/>
</radialGradient>
<radialGradient id="paint2_radial_755_542" cx="0" cy="0" r="1" gradientUnits="userSpaceOnUse" gradientTransform="translate(512 341.99) rotate(90) scale(175 306)">
<stop stop-color="#1348FF"/>
<stop offset="1" stop-color="#06238D"/>
</radialGradient>
</defs>
</svg>
