<svg width="16" height="16" viewBox="0 0 16 16" fill="none" xmlns="http://www.w3.org/2000/svg">
<path d="M9.58772 6.545H9.24057V7.82821H9.58772C10.0506 7.82821 10.419 7.67275 10.419 7.17905C10.419 6.68536 10.0506 6.545 9.58772 6.545Z" fill="#424242"/>
<path d="M5.35053 8.65331L5.85005 7.0616L5.85053 7.06209H5.86066L6.34957 8.65819C6.20251 8.7118 6.03905 8.74348 5.85535 8.74348C5.67165 8.74348 5.49904 8.71033 5.35053 8.65331Z" fill="#424242"/>
<path fill-rule="evenodd" clip-rule="evenodd" d="M0 4V12H8.08582L16 4H0ZM9.74976 8.92233H9.24108V10.4512H6.90839L6.67695 9.71965C6.43009 9.80152 6.15092 9.84733 5.85583 9.84733C5.56075 9.84733 5.26663 9.7986 5.01495 9.71282L4.77483 10.4512H3.34474L3.50241 10.0242C3.48361 10.0413 3.4648 10.0584 3.44503 10.0744C3.08823 10.3644 2.64224 10.5243 2.0892 10.534H2.00723C1.37271 10.5345 0.750723 10.3576 0.224687 10.0554L0.711186 9.07877C1.23819 9.3936 1.56847 9.46378 2.01543 9.45501C2.24687 9.45062 2.41369 9.40774 2.52314 9.29369C2.58872 9.224 2.6244 9.13823 2.62584 9.04563C2.63018 8.79172 2.27338 8.6728 1.83655 8.53634C1.48216 8.42473 1.08004 8.27365 0.766152 8.04069C0.393443 7.76387 0.216008 7.41785 0.224687 6.92903C0.230473 6.57374 0.360656 6.25355 0.601736 6.00061C0.947927 5.63899 1.50675 5.41919 2.17695 5.41919H2.18081C2.75554 5.42016 3.45661 5.5844 3.9648 5.84612L3.41659 6.80963C2.86114 6.53817 2.58149 6.51282 2.26471 6.49577C1.79364 6.46994 1.55497 6.64051 1.55207 6.82425C1.54822 7.04794 1.99711 7.25117 2.42237 7.38861C3.06509 7.59525 3.88187 7.87158 4.00627 8.6689L5.18033 5.5035H6.54436L7.92044 9.28833V5.5035H9.49518C11.0005 5.5035 11.7078 6.04642 11.7078 7.22827C11.7078 8.28973 10.9797 8.92233 9.74976 8.92233Z" fill="#424242"/>
</svg>
