<svg width="24" height="24" viewBox="0 0 24 24" fill="none" xmlns="http://www.w3.org/2000/svg">
<path d="M9 1C9.41421 1 9.75 1.33579 9.75 1.75C9.75 2.16421 9.41421 2.5 9 2.5H5.75C3.95507 2.5 2.5 3.95507 2.5 5.75V18.25C2.5 20.0449 3.95507 21.5 5.75 21.5H18.25C20.0449 21.5 21.5 20.0449 21.5 18.25V6.96875C21.4831 4.50613 19.4822 2.51477 17.0156 2.51465C15.101 2.51471 13.4645 3.71476 12.8213 5.40625C12.6741 5.79343 12.2407 5.988 11.8535 5.84082C11.4667 5.69356 11.2721 5.26098 11.4189 4.87402C12.276 2.61943 14.4578 1.01471 17.0156 1.01465C20.321 1.01477 23.0009 3.69457 23.001 7H23V18.25C23 20.8734 20.8734 23 18.25 23H5.75C3.12665 23 1 20.8734 1 18.25V5.75C1 3.12665 3.12665 1 5.75 1H9Z" fill="black"/>
<path fill-rule="evenodd" clip-rule="evenodd" d="M12 7C12.5523 7 13 7.44772 13 8H13.3213C14.3402 8.00013 15.196 8.76664 15.3086 9.7793L15.7773 14H16C16.5523 14 17 14.4477 17 15C17 15.5523 16.5523 16 16 16H14.5V18.25C14.5 18.6642 14.1642 19 13.75 19C13.3358 19 13 18.6642 13 18.25V16H11V18.25C11 18.6642 10.6642 19 10.25 19C9.83579 19 9.5 18.6642 9.5 18.25V16H8C7.44772 16 7 15.5523 7 15C7 14.4477 7.44772 14 8 14H8.22266L8.69141 9.7793C8.80405 8.76664 9.65981 8.00013 10.6787 8H11C11 7.44772 11.4477 7 12 7ZM10.2344 12.4961C9.82024 12.4961 9.48451 12.832 9.48438 13.2461C9.48438 13.6603 9.82016 13.9961 10.2344 13.9961H13.7344C14.1486 13.9961 14.4844 13.6603 14.4844 13.2461C14.4842 12.832 14.1485 12.4961 13.7344 12.4961H10.2344Z" fill="black"/>
</svg>
