<svg xmlns="http://www.w3.org/2000/svg" viewBox="0 0 90 90">
    <defs>
        <style>
            .cls-1,
            .cls-2,
            .cls-3 {
                fill: #fff;
                stroke-linecap: round;
                stroke-miterlimit: 10;
                stroke-width: 3px;
            }

            .cls-1 {
                stroke: #70c7da;
            }

            .cls-2 {
                stroke: #288bbd;
            }

            .cls-3 {
                stroke: #276480;
            }
        </style>
    </defs>
    <g id="Layer_1" data-name="Layer 1">
        <path class="cls-1"
            d="M62,72.33l13-5.93a1.81,1.81,0,0,0,.55-2.69L49.45,35a1.07,1.07,0,0,0-1.26-.26L13.8,50.19a1.81,1.81,0,0,0-.58,2.67L38.43,82.2a1.06,1.06,0,0,0,1.29.29l14.44-6.6Z" />
        <path class="cls-2"
            d="M62,59.26l13-5.92a1.82,1.82,0,0,0,.55-2.7L49.45,22a1.07,1.07,0,0,0-1.26-.26L13.8,37.12a1.82,1.82,0,0,0-.58,2.68L38.43,69.13a1.06,1.06,0,0,0,1.29.29l14.44-6.6Z" />
        <path class="cls-3"
            d="M62,45.08l13-5.92a1.82,1.82,0,0,0,.55-2.7l-26-28.69a1.07,1.07,0,0,0-1.26-.26L13.8,22.94a1.82,1.82,0,0,0-.58,2.68L38.43,55a1.06,1.06,0,0,0,1.29.29l14.44-6.6Z" />
    </g>
</svg>