<?xml version="1.0" encoding="UTF-8" standalone="no"?>
<!DOCTYPE svg PUBLIC "-//W3C//DTD SVG 1.1//EN"
 "http://www.w3.org/Graphics/SVG/1.1/DTD/svg11.dtd">
<!-- Generated by graphviz version 9.0.0 (20230911.1827)
 -->
<!-- Title: G Pages: 1 -->
<svg width="156pt" height="85pt"
 viewBox="0.00 0.00 155.95 84.95" xmlns="http://www.w3.org/2000/svg" xmlns:xlink="http://www.w3.org/1999/xlink">
<g id="graph0" class="graph" transform="scale(1 1) rotate(0) translate(21.6 63.35)">
<title>G</title>
<polygon fill="#111111" stroke="none" points="-21.6,21.6 -21.6,-63.35 134.35,-63.35 134.35,21.6 -21.6,21.6"/>
<!-- base/prompts.ts -->
<g id="node1" class="node">
<title>base/prompts.ts</title>
<path fill="none" stroke="#ff6c60" d="M104.83,-23.75C104.83,-23.75 7.92,-23.75 7.92,-23.75 3.96,-23.75 0,-19.79 0,-15.83 0,-15.83 0,-7.92 0,-7.92 0,-3.96 3.96,0 7.92,0 7.92,0 104.83,0 104.83,0 108.79,0 112.75,-3.96 112.75,-7.92 112.75,-7.92 112.75,-15.83 112.75,-15.83 112.75,-19.79 108.79,-23.75 104.83,-23.75"/>
<text text-anchor="middle" x="56.38" y="-6.45" font-family="Arial" font-size="14.00" fill="#ff6c60">base/prompts.ts</text>
</g>
<!-- base/prompts.ts&#45;&gt;base/prompts.ts -->
<g id="edge1" class="edge">
<title>base/prompts.ts&#45;&gt;base/prompts.ts</title>
<path fill="none" stroke="#757575" d="M37.51,-24.15C31.37,-32.97 37.66,-41.75 56.38,-41.75 66.32,-41.75 72.76,-39.27 75.68,-35.63"/>
<polygon fill="#757575" stroke="#757575" points="79.18,-35.52 75.3,-25.66 72.19,-35.79 79.18,-35.52"/>
</g>
</g>
</svg>
